<?xml version="1.0" encoding="UTF-8"?>
<svg width="39px" height="51px" viewBox="0 0 39 51" version="1.1" xmlns="http://www.w3.org/2000/svg" xmlns:xlink="http://www.w3.org/1999/xlink">
    <title>Group 22</title>
    <g id="Page-1" stroke="none" stroke-width="1" fill="none" fill-rule="evenodd">
        <g id="Desktop-HD" transform="translate(-1005.000000, -2119.000000)" fill="#0076FF" fill-rule="nonzero">
            <g id="Group-15" transform="translate(121.000000, 1822.000000)">
                <g id="Group-12" transform="translate(0.000000, 200.000000)">
                    <g id="Group-5" transform="translate(830.000000, 44.000000)">
                        <g id="3064775" transform="translate(23.000000, 28.000000)">
                            <g id="Group-22" transform="translate(31.254571, 25.031250)">
                                <path d="M29.1798036,40.5625 C29.1579286,40.709375 29.1579286,40.875 29.1579286,41.021875 L29.1579286,44.209375 C29.1579286,47.375 26.5954286,49.9375 23.4298036,49.9375 L14.0548036,49.9375 C10.8891786,49.9375 8.3266786,47.375 8.3266786,44.209375 L8.3266786,41.021875 C8.3266786,40.875 8.3266786,40.709375 8.3048036,40.5625 L29.1798036,40.5625 Z" id="Path"></path>
                                <path d="M30.7423036,4.334375 C27.3673036,1.5 23.1173036,0 18.7423036,0 C17.5766786,0 16.3891786,0.103125 15.2016786,0.334375 C8.2423036,1.60625 2.5548036,6.79375 0.701678599,13.5625 C-1.0483214,19.896875 0.514178599,26.334375 4.9516786,31.209375 C6.5548036,32.98125 7.6173036,35.125 8.0766786,37.4375 L29.4298036,37.4375 C29.8673036,35.125 30.9516786,32.959375 32.5548036,31.1875 C35.7423036,27.709375 37.4923036,23.290625 37.4923036,18.75 C37.4923036,13.165625 35.0329286,7.915625 30.7423036,4.334375 L30.7423036,4.334375 Z" id="Shape"></path>
                            </g>
                        </g>
                    </g>
                </g>
            </g>
        </g>
    </g>
</svg>