<?xml version="1.0" encoding="UTF-8"?>
<svg width="28px" height="19px" viewBox="0 0 28 19" version="1.1" xmlns="http://www.w3.org/2000/svg" xmlns:xlink="http://www.w3.org/1999/xlink">
    <title>Group 21</title>
    <g id="Page-1" stroke="none" stroke-width="1" fill="none" fill-rule="evenodd">
        <g id="Desktop-HD" transform="translate(-815.000000, -4273.000000)" fill="#0076FF" fill-rule="nonzero">
            <g id="Group-5" transform="translate(0.000000, 4191.000000)">
                <g id="Group-3" transform="translate(578.000000, 64.000000)">
                    <g id="2111327" transform="translate(223.020000, 0.000000)">
                        <g id="Group-21" transform="translate(13.980152, 18.762405)">
                            <polygon id="Path" points="24.8582341 5.24255701 22.3265154 5.24255701 22.3265154 7.76212064 19.8052154 7.76212064 19.8052154 10.2938393 22.3265154 10.2938393 22.3265154 12.8151394 24.8582341 12.8151394 24.8582341 10.2938393 27.3777977 10.2938393 27.3777977 7.76212064 24.8582341 7.76212064"></polygon>
                            <path d="M8.61695761,17.47519 C13.5906655,17.47519 16.8926837,13.9347165 16.8926837,8.94030722 C16.8926837,8.36886851 16.8340884,7.9267462 16.7513656,7.48637141 L8.61695761,7.48637141 L8.61695761,10.4903566 L13.5079427,10.4903566 C13.3080293,11.7660454 12.0275494,14.2580075 8.61695761,14.2580075 C5.67857507,14.2580075 3.27961407,11.7905107 3.27961407,8.73934254 C3.27961407,5.68817436 5.67685167,3.22067752 8.61695761,3.22067752 C10.2989877,3.22067752 11.4140221,3.94764543 12.0499535,4.56801467 L14.3885958,2.29099741 C12.884075,0.858031831 10.9452596,-2.48689958e-13 8.61695761,-2.48689958e-13 C3.85522683,-2.48689958e-13 3.01980663e-14,3.90920001 3.01980663e-14,8.73759502 C3.01980663e-14,13.56599 3.85522683,17.47519 8.61695761,17.47519 Z" id="Path"></path>
                        </g>
                    </g>
                </g>
            </g>
        </g>
    </g>
</svg>