<?xml version="1.0" encoding="UTF-8"?>
<svg width="28px" height="23px" viewBox="0 0 28 23" version="1.1" xmlns="http://www.w3.org/2000/svg" xmlns:xlink="http://www.w3.org/1999/xlink">
    <title>Path</title>
    <g id="Page-1" stroke="none" stroke-width="1" fill="none" fill-rule="evenodd">
        <g id="Desktop-HD" transform="translate(-740.000000, -4271.000000)" fill="#0076FF" fill-rule="nonzero">
            <g id="Group-5" transform="translate(0.000000, 4191.000000)">
                <g id="Group-3" transform="translate(578.000000, 64.000000)">
                    <g id="2111580" transform="translate(148.680000, 0.000000)">
                        <path d="M38.544881,21.9525681 C39.6588152,21.1659157 40.5947936,20.1834516 41.3579497,19.0528516 L41.3579497,19.0511489 C40.3398379,19.4955564 39.2549927,19.7901254 38.1239474,19.9331531 C39.2875038,19.2418525 40.1755711,18.155523 40.5930825,16.8461384 C39.5082373,17.4897631 38.3104586,17.9443869 37.0339688,18.1980908 C36.0038792,17.1083558 34.5357448,16.4323796 32.9341436,16.4323796 C29.8267636,16.4323796 27.3251173,18.9421754 27.3251173,22.0189739 C27.3251173,22.4616787 27.3627618,22.8873564 27.4551618,23.2926016 C22.7889584,23.066141 18.6600443,20.840698 15.8863312,17.4506007 C15.4020864,18.2866317 15.1180417,19.2435552 15.1180417,20.2736953 C15.1180417,22.2079748 16.1190425,23.9226046 17.6111324,24.915285 C16.7093762,24.8982579 15.8247311,24.6377431 15.0752639,24.2273898 L15.0752639,24.2886874 C15.0752639,27.0028084 17.0207987,29.2571976 19.5720672,29.7765244 C19.1152002,29.9008223 18.6172665,29.9604171 18.1005106,29.9604171 C17.741177,29.9604171 17.3784212,29.9399846 17.0379098,29.8650653 C17.7651326,32.0768867 19.8287341,33.7029755 22.2824692,33.7557596 C20.3728678,35.2422261 17.9482216,36.137852 15.3233752,36.137852 C14.863086,36.137852 14.421619,36.1174195 13.980152,36.06123 C16.4663983,37.6566701 19.4129338,38.5676204 22.5904694,38.5676204 C32.4943877,38.5676204 38.9504147,30.3452298 38.544881,21.9525681 L38.544881,21.9525681 Z" id="Path"></path>
                    </g>
                </g>
            </g>
        </g>
    </g>
</svg>