<?xml version="1.0" encoding="UTF-8"?>
<svg width="45px" height="52px" viewBox="0 0 45 52" version="1.1" xmlns="http://www.w3.org/2000/svg" xmlns:xlink="http://www.w3.org/1999/xlink">
    <title>Group 19</title>
    <defs>
        <filter id="filter-1">
            <feColorMatrix in="SourceGraphic" type="matrix" values="0 0 0 0 0.000000 0 0 0 0 0.462750 0 0 0 0 1.000000 0 0 0 1.000000 0"></feColorMatrix>
        </filter>
    </defs>
    <g id="Page-1" stroke="none" stroke-width="1" fill="none" fill-rule="evenodd">
        <g id="Desktop-HD" transform="translate(-171.000000, -2118.000000)">
            <g id="Group-15" transform="translate(121.000000, 1822.000000)">
                <g id="Group-12" transform="translate(0.000000, 244.000000)">
                    <g id="3602752" transform="translate(23.000000, 28.000000)">
                        <g id="Group-19" transform="translate(27.722772, 24.752475)">
                            <g filter="url(#filter-1)" id="Group">
                                <g transform="translate(13.861386, 0.000000)">
                                    <path d="M8.51485149,9.78932625 C7.34891089,9.78932625 6.40158416,8.86510505 6.40158416,7.72760203 L6.40158416,2.06172422 C6.40158416,0.921130162 7.34891089,0 8.51485149,0 C9.68079208,0 10.6281188,0.924221203 10.6281188,2.06172422 L10.6281188,7.72760203 C10.6281188,8.86510505 9.68079208,9.78932625 8.51485149,9.78932625 Z" id="Path" fill="#8CE1EB" fill-rule="nonzero"></path>
                                    <path d="M23.0669307,15.68085 C22.5251485,15.68085 21.9865347,15.4799324 21.5746535,15.0780971 C20.7508911,14.2744265 20.7508911,12.9669162 21.5746535,12.1632456 L26.0324752,7.81415117 C26.8562376,7.01048056 28.1932673,7.01048056 29.020198,7.81415117 C29.8471287,8.61782178 29.8439604,9.92533205 29.020198,10.7290027 L24.5623762,15.0780971 C24.1473267,15.4799324 23.6087129,15.68085 23.0669307,15.68085 Z" id="Path" fill="#8CE1EB" fill-rule="nonzero"></path>
                                    <path d="M14.8514851,4.1203574 L2.17821782,4.1203574 C1.01227723,4.1203574 0.064950495,3.1961362 0.064950495,2.05863318 C0.064950495,0.921130162 1.00910891,0 2.17821782,0 L14.8514851,0 C16.0174257,0 16.9647525,0.924221203 16.9647525,2.06172422 C16.9647525,3.19922724 16.0205941,4.1203574 14.8514851,4.1203574 Z" id="Path" fill="#8CE1EB" fill-rule="nonzero"></path>
                                </g>
                            </g>
                            <path d="M21.7821782,6.93069307 C9.7708628,6.93069307 -3.55271368e-15,16.7015559 -3.55271368e-15,28.7128713 C-3.55271368e-15,40.7241867 9.7708628,50.4950495 21.7821782,50.4950495 C33.7934936,50.4950495 43.5643564,40.7241867 43.5643564,28.7128713 C43.5643564,16.7015559 33.7934936,6.93069307 21.7821782,6.93069307 Z M23.8577086,28.7128713 C23.8577086,29.8579915 22.9272984,30.7884017 21.7821782,30.7884017 C20.637058,30.7884017 19.7066478,29.8579915 19.7066478,28.7128713 L19.7066478,17.3021216 C19.7066478,16.1570014 20.637058,15.2265912 21.7821782,15.2265912 C22.9272984,15.2265912 23.8577086,16.1538897 23.8577086,17.3021216 L23.8577086,28.7128713 Z" id="Shape" fill="#0076FF" fill-rule="nonzero"></path>
                        </g>
                    </g>
                </g>
            </g>
        </g>
    </g>
</svg>