<?xml version="1.0" encoding="UTF-8"?>
<svg width="50px" height="50px" viewBox="0 0 50 50" version="1.1" xmlns="http://www.w3.org/2000/svg" xmlns:xlink="http://www.w3.org/1999/xlink">
    <title>Group 19</title>
    <g id="Page-1" stroke="none" stroke-width="1" fill="none" fill-rule="evenodd">
        <g id="Desktop-HD" transform="translate(-584.000000, -2120.000000)" fill="#0076FF" fill-rule="nonzero">
            <g id="Group-15" transform="translate(121.000000, 1822.000000)">
                <g id="Group-12" transform="translate(0.000000, 200.000000)">
                    <g id="Group-5" transform="translate(415.000000, 44.000000)">
                        <g id="3064331" transform="translate(23.000000, 29.000000)">
                            <g id="Group-19" transform="translate(25.000000, 24.999219)">
                                <path d="M34.75,6.31328125 L18.08125,0.06328125 C17.83125,-0.02109375 17.58125,-0.02109375 17.33125,0.06328125 L0.6625,6.31328125 C0.26875,6.46015625 -7.10542736e-15,6.85390625 -7.10542736e-15,7.29140625 L-7.10542736e-15,20.6882813 C-7.10542736e-15,39.6882813 17.3125,43.6882813 17.48125,43.7289063 C17.5625,43.7507813 17.625,43.7507813 17.709375,43.7507813 C17.79375,43.7507813 17.85625,43.7507813 17.9375,43.7289063 C18.021875,43.7070313 22.625,42.6445313 27.084375,39.0414063 C27.084375,36.0632813 28.79375,33.5007813 31.25,32.1882813 C31.290625,29.1257813 32.8125,26.3976563 35.125,24.7101563 C35.3125,23.4601563 35.415625,22.1070313 35.415625,20.6882813 L35.415625,7.29140625 C35.415625,6.85390625 35.146875,6.46015625 34.75,6.31328125 L34.75,6.31328125 Z" id="Path"></path>
                                <path d="M46.35625,35.4164063 L45.834375,35.4164063 L45.834375,32.2914063 C45.834375,29.4195313 43.5,27.0820313 40.625,27.0820313 C37.75,27.0820313 35.415625,29.4195313 35.415625,32.2914063 L35.415625,35.4164063 L34.89375,35.4164063 C32.8875,35.4164063 31.25,37.0539063 31.25,39.0632813 L31.25,46.3539063 C31.25,48.3664063 32.8875,50.0007813 34.896875,50.0007813 L46.35625,50.0007813 C48.365625,50.0007813 50,48.3664063 50,46.3539063 L50,39.0632813 C50,37.0539063 48.365625,35.4164063 46.35625,35.4164063 L46.35625,35.4164063 Z M38.54375,32.2914063 C38.54375,31.1414063 39.478125,30.2070313 40.628125,30.2070313 C41.778125,30.2070313 42.7125,31.1414063 42.7125,32.2914063 L42.7125,35.4164063 L38.546875,35.4164063 L38.546875,32.2914063 L38.54375,32.2914063 Z" id="Shape"></path>
                            </g>
                        </g>
                    </g>
                </g>
            </g>
        </g>
    </g>
</svg>