<?xml version="1.0" encoding="UTF-8"?>
<svg width="29px" height="28px" viewBox="0 0 29 28" version="1.1" xmlns="http://www.w3.org/2000/svg" xmlns:xlink="http://www.w3.org/1999/xlink">
    <title>Path</title>
    <g id="Page-1" stroke="none" stroke-width="1" fill="none" fill-rule="evenodd">
        <g id="Desktop-HD" transform="translate(-591.000000, -4269.000000)" fill="#0076FF" fill-rule="nonzero">
            <g id="Group-5" transform="translate(0.000000, 4191.000000)">
                <g id="2111275" transform="translate(578.000000, 64.000000)">
                    <path d="M17.4023767,41.480152 L27.6690509,41.480152 L27.6690509,32.0690341 L24.2468262,32.0690341 L24.2468262,27.7912532 L27.6690509,27.7912532 L27.6690509,24.3690285 C27.6690509,21.5337153 29.9670748,19.2356914 32.802388,19.2356914 L36.2246127,19.2356914 L36.2246127,23.5134723 L34.5135003,23.5134723 C33.5689663,23.5134723 32.802388,23.4244944 32.802388,24.3690285 L32.802388,27.7912532 L37.0801689,27.7912532 L35.3690565,32.0690341 L32.802388,32.0690341 L32.802388,41.480152 L37.935725,41.480152 C39.823082,41.480152 41.3579497,39.9452842 41.3579497,38.0579273 L41.3579497,17.524579 C41.3579497,15.6372221 39.823082,14.1023543 37.935725,14.1023543 L17.4023767,14.1023543 C15.5150198,14.1023543 13.980152,15.6372221 13.980152,17.524579 L13.980152,38.0579273 C13.980152,39.9452842 15.5150198,41.480152 17.4023767,41.480152 Z" id="Path"></path>
                </g>
            </g>
        </g>
    </g>
</svg>