<?xml version="1.0" encoding="UTF-8"?>
<svg width="22px" height="22px" viewBox="0 0 22 22" version="1.1" xmlns="http://www.w3.org/2000/svg" xmlns:xlink="http://www.w3.org/1999/xlink">
    <title>instagram</title>
    <g id="Page-1" stroke="none" stroke-width="1" fill="none" fill-rule="evenodd">
        <g id="Desktop-HD" transform="translate(-906.000000, -4377.000000)" fill="#0076FF" fill-rule="nonzero">
            <g id="instagram" transform="translate(906.000000, 4377.000000)">
                <path d="M15.125,0 L6.875,0 C3.078625,0 0,3.078625 0,6.875 L0,15.125 C0,18.921375 3.078625,22 6.875,22 L15.125,22 C18.921375,22 22,18.921375 22,15.125 L22,6.875 C22,3.078625 18.921375,0 15.125,0 Z M19.9375,15.125 C19.9375,17.77875 17.77875,19.9375 15.125,19.9375 L6.875,19.9375 C4.22125,19.9375 2.0625,17.77875 2.0625,15.125 L2.0625,6.875 C2.0625,4.22125 4.22125,2.0625 6.875,2.0625 L15.125,2.0625 C17.77875,2.0625 19.9375,4.22125 19.9375,6.875 L19.9375,15.125 Z" id="Shape"></path>
                <path d="M11,5.5 C7.962625,5.5 5.5,7.962625 5.5,11 C5.5,14.037375 7.962625,16.5 11,16.5 C14.037375,16.5 16.5,14.037375 16.5,11 C16.5,7.962625 14.037375,5.5 11,5.5 Z M11,14.4375 C9.10525,14.4375 7.5625,12.89475 7.5625,11 C7.5625,9.103875 9.10525,7.5625 11,7.5625 C12.89475,7.5625 14.4375,9.103875 14.4375,11 C14.4375,12.89475 12.89475,14.4375 11,14.4375 Z" id="Shape"></path>
                <circle id="Oval" cx="16.9125" cy="5.0875" r="1"></circle>
            </g>
        </g>
    </g>
</svg>