<svg width="22" height="22" xmlns="http://www.w3.org/2000/svg"><g fill="#0076FF" fill-rule="nonzero"><path d="M4.98 7.163H.37a.362.362 0 00-.37.353v14.13c0 .196.166.354.37.354h4.61c.206 0 .371-.158.371-.353V7.517a.362.362 0 00-.37-.354zM2.974 0C1.334 0 0 1.262 0 2.813c0 1.552 1.334 2.815 2.974 2.815 1.639 0 2.972-1.263 2.972-2.815C5.946 1.263 4.613 0 2.974 0zM16.43 6.651c-1.75 0-3.043.768-3.827 1.64v-.928a.354.354 0 00-.35-.357H8.08c-.194 0-.35.16-.35.357v14.28c0 .197.156.357.35.357h4.347c.194 0 .35-.16.35-.357v-7.065c0-2.381.634-3.309 2.261-3.309 1.772 0 1.913 1.487 1.913 3.431v6.943c0 .197.156.357.35.357h4.349c.193 0 .35-.16.35-.357V13.81c0-3.54-.662-7.159-5.57-7.159z"/></g></svg>