<?xml version="1.0" encoding="UTF-8"?>
<svg width="28px" height="29px" viewBox="0 0 28 29" version="1.1" xmlns="http://www.w3.org/2000/svg" xmlns:xlink="http://www.w3.org/1999/xlink">
    <title>Path</title>
    <g id="Page-1" stroke="none" stroke-width="1" fill="none" fill-rule="evenodd">
        <g id="Desktop-HD" transform="translate(-666.000000, -4268.000000)" fill="#0076FF" fill-rule="nonzero">
            <g id="Group-5" transform="translate(0.000000, 4191.000000)">
                <g id="Group-3" transform="translate(578.000000, 64.000000)">
                    <g id="2111276" transform="translate(74.340000, 0.000000)">
                        <path d="M13.75,26.4807812 C13.75,30.4871875 15.7489063,34.0604687 18.8735937,36.3945312 L18.8735937,41.25 L23.5554687,38.6804687 C24.805,39.0259375 26.1284375,39.2132812 27.5,39.2132812 C35.0934375,39.2132812 41.25,33.5139062 41.25,26.4825 C41.25,19.4510937 35.0934375,13.75 27.5,13.75 C19.9065625,13.75 13.75,19.449375 13.75,26.4807812 L13.75,26.4807812 Z M26.049375,22.9160937 L29.6364063,26.6509375 L36.3825,22.9160937 L28.8664063,30.8945312 L25.3670313,27.1614062 L18.5332812,30.89625 L26.049375,22.9160937 Z" id="Shape"></path>
                    </g>
                </g>
            </g>
        </g>
    </g>
</svg>