<svg width="80" height="60" xmlns="http://www.w3.org/2000/svg"><path d="M7.305 56.16c1.317 2.124 4.08 2.41 8.288.855 4.519-1.684 8.87-4.663 13.053-8.938 4.286-4.404 6.687-8.64 7.204-12.707.284-2.228-.078-4.34-1.085-6.335a55.684 55.684 0 012.711-1.282c.336-.155.51-.408.523-.758.013-.35-.11-.628-.368-.835-.258-.208-.555-.233-.89-.078-.904.414-1.886.88-2.944 1.399-1.059-1.373-2.389-2.345-3.99-2.915a17.058 17.058 0 00-3.543-.816 18.867 18.867 0 00-3.932-.058 85 85 0 00-3.698.389c-1.098.142-2.421.35-3.97.621-1.55.272-2.737.46-3.564.564-.04 0-.132.01-.275.03l-.136.018c-.223.033-.531.081-.925.146-.787.13-1.381.207-1.781.233-.4.026-.936.046-1.608.059-.671.013-1.246-.059-1.723-.214-.478-.156-.872-.376-1.182-.66-1.11-1.037-.839-2.89.814-5.558 1.73-2.798 4.034-5.375 6.913-7.733a49.96 49.96 0 019.276-6.023c3.718-1.866 6.869-2.772 9.45-2.72 2.609.025 4.106.893 4.493 2.603.052.26.084.525.097.797.013.272-.006.55-.058.835-.051.285-.11.564-.174.836a5.77 5.77 0 01-.29.874l-.35.836c-.102.246-.232.53-.386.855-.155.323-.284.589-.388.796l-.054.108c-.093.185-.204.402-.333.65-.155.298-.271.525-.349.68-.155.337-.129.628.078.874.206.246.484.357.833.33.348-.025.613-.207.793-.543.336-.7.562-1.166.678-1.4.116-.233.33-.692.64-1.379.31-.686.516-1.23.619-1.632.103-.402.226-.9.368-1.496a5.368 5.368 0 00.155-1.652 8.424 8.424 0 00-.252-1.496c-.62-1.917-2.362-3.005-5.229-3.264-2.375-.207-4.79.162-7.242 1.107-2.453.946-4.997 2.248-7.63 3.906-5.939 3.73-10.277 7.733-13.014 12.008-.439.7-.813 1.412-1.123 2.137-.31.725-.549 1.51-.717 2.351-.167.842-.096 1.626.213 2.351.31.726.865 1.321 1.666 1.788.775.414 1.756.654 2.943.719 1.188.064 2.221.032 3.099-.098.93-.077 1.943-.194 3.04-.35 1.098-.155 2.266-.33 3.505-.524 1.24-.194 2.247-.33 3.021-.408a46.639 46.639 0 013.68-.35 33.329 33.329 0 013.563.04c1.317.077 2.511.336 3.583.776 1.071.44 1.982 1.05 2.73 1.827-8.004 4.12-14.485 8.77-19.443 13.95C7.034 48.195 5.24 52.819 7.305 56.16zm7.072-.957c-2.78 1.007-4.623 1.06-5.532.159-.416-.398-.675-.902-.78-1.511a4.572 4.572 0 01.06-1.83c.142-.609.363-1.265.661-1.967.3-.703.591-1.293.877-1.77.286-.477.584-.94.896-1.392C15.052 40.32 22.533 34.354 32.999 29c.364.716.637 1.498.819 2.346.831 4.268-1.182 9.065-6.039 14.393-4.233 4.613-8.7 7.767-13.402 9.464zM46.481 42c.863 0 1.712-.171 2.547-.513.836-.342 1.53-.724 2.082-1.145a12.304 12.304 0 001.577-1.44c.498-.54.835-.934 1.01-1.184a5.53 5.53 0 00.384-.612.828.828 0 00.101-.69.928.928 0 00-.424-.573c-.216-.131-.458-.158-.728-.079a.866.866 0 00-.566.395 2.85 2.85 0 01-.323.533c-.162.223-.478.579-.95 1.065-.472.487-.964.915-1.476 1.283-.512.368-1.145.664-1.9.888-.754.224-1.509.27-2.264.138-2.749-.526-4.285-2.934-4.608-7.222a.713.713 0 00.202-.198c.674-1.026 1.435-2.21 2.284-3.552.849-1.342 2.095-3.42 3.74-6.235 1.643-2.816 3.052-5.407 4.224-7.775a49.007 49.007 0 002.87-7.104c.741-2.368.923-4.118.546-5.25-.296-.841-.849-1.394-1.657-1.657a.366.366 0 00-.162-.04c-1.051-.157-2.15.244-3.295 1.204s-2.23 2.283-3.254 3.967c-1.024 1.684-1.995 3.591-2.91 5.722a60.743 60.743 0 00-2.386 6.572 55.232 55.232 0 00-1.536 6.413c-.863 4.894-.809 8.82.161 11.78.97 2.96 2.776 4.69 5.418 5.19A7.17 7.17 0 0046.48 42zM41 30c.08-1.333.251-2.73.516-4.192.45-2.59 1.145-5.231 2.085-7.923.94-2.693 1.925-5.039 2.958-7.039 1.032-2 2.077-3.64 3.136-4.923C50.754 4.641 51.654 4 52.395 4h.08c.185.103.317.27.396.5.37 1.103-.06 3.167-1.29 6.192-1.23 3.026-2.76 6.167-4.586 9.423A175.175 175.175 0 0141 30zm13.01-8a.637.637 0 00.297-.066c.226-.043.79-.207 1.693-.491h0L55.238 20l-.148.05c-.099.032-.212.07-.339.114-.127.044-.26.087-.402.131-.14.044-.275.088-.402.131a.98.98 0 01-.275.066 1.097 1.097 0 00-.571.41.503.503 0 00-.021.573c.14.35.451.525.93.525zm-.404 16c.837 0 1.763-.315 2.778-.945 1.015-.63 1.98-1.448 2.893-2.453.914-1.005 1.63-1.843 2.15-2.513.521-.67.984-1.3 1.39-1.89a.936.936 0 00.172-.704.875.875 0 00-.362-.603.826.826 0 00-.685-.14c-.229.026-.419.147-.571.361-1.396 2.038-2.931 3.814-4.606 5.328-1.675 1.515-2.931 2.03-3.768 1.548-.178-.24-.254-.777-.229-1.608.026-.831.21-2.004.552-3.519a44.45 44.45 0 011.313-4.604 1.17 1.17 0 00.038-.503.968.968 0 00-.19-.422.805.805 0 00-.38-.281.825.825 0 00-.667.04.839.839 0 00-.437.523 46.996 46.996 0 00-.952 3.056 47.325 47.325 0 00-.8 3.498c-.253 1.314-.31 2.467-.17 3.458.139.992.488 1.663 1.046 2.011a3.13 3.13 0 001.485.362zm1.342 21a.89.89 0 00.62-.236.88.88 0 00.3-.55c.319-2.78 1.239-7.495 2.758-14.143 1.52-6.648 2.639-10.601 3.358-11.86.773-1.338 1.866-2.786 3.279-4.347 1.413-1.56 2.705-2.472 3.878-2.734.64-.157 1.186-.065 1.64.276.213.13.28.576.2 1.337-.027.21-.067.433-.12.669a28.22 28.22 0 00-4.739 5.409c-1.372 2.032-2.205 3.743-2.498 5.133-.267 1.285 0 2.138.8 2.557.532.315 1.139.203 1.818-.334.68-.538 1.486-1.554 2.42-3.049.186-.288.472-.773.859-1.455.386-.682.926-1.784 1.62-3.305.692-1.52 1.172-2.858 1.439-4.012 2.052-1.731 3.904-2.662 5.557-2.793.16-.026.313-.085.46-.177a.82.82 0 00.32-.354.933.933 0 00.08-.472.8.8 0 00-.18-.453 1.025 1.025 0 00-.38-.295 1.114 1.114 0 00-.46-.098c-1.572.131-3.278.84-5.118 2.124-.08-.918-.413-1.573-1-1.967-.932-.629-1.972-.813-3.118-.55-.773.183-1.572.557-2.399 1.12a12.739 12.739 0 00-2.299 2.027c-.706.786-1.299 1.481-1.779 2.085-.48.603-.92 1.219-1.32 1.848 1.094-4.746 1.667-7.172 1.72-7.277a.91.91 0 00-.12-.688.85.85 0 00-.58-.414.93.93 0 00-.7.118c-.213.132-.36.315-.44.551h0l-1.918 8.222c-.986 4.196-2.086 9.559-3.299 16.089-1.213 6.53-1.739 10.28-1.58 11.25 0 .105.028.204.08.296.054.091.12.17.2.236.08.065.174.118.28.157.107.04.227.059.36.059zM66 38c.181-.918.725-2.124 1.631-3.618A31.865 31.865 0 0170 31a38.099 38.099 0 01-2.039 4.13C67.197 36.465 66.544 37.422 66 38z" fill="currentColor" fill-rule="nonzero" stroke="currentColor" stroke-width="1.5"/></svg>